<mxfile host="app.diagrams.net" modified="2023-09-14T13:07:28.863Z" agent="Mozilla/5.0 (Windows NT 10.0; Win64; x64) AppleWebKit/537.36 (KHTML, like Gecko) Chrome/116.0.0.0 Safari/537.36 Edg/116.0.1938.76" etag="Y7mj_hQUGZig0-pxFoVF" version="21.7.5" type="device">
  <diagram name="Страница — 1" id="duaiyCC40SukSjEjCBVI">
    <mxGraphModel dx="746" dy="1636" grid="1" gridSize="10" guides="1" tooltips="1" connect="1" arrows="1" fold="1" page="1" pageScale="1" pageWidth="827" pageHeight="1169" math="0" shadow="0">
      <root>
        <mxCell id="0" />
        <mxCell id="1" parent="0" />
        <mxCell id="D3T-K-M_0nCNbyNgaq4X-1" value="&lt;font style=&quot;font-size: 12px;&quot;&gt;Группа студентов&lt;/font&gt;" style="rounded=0;whiteSpace=wrap;html=1;" parent="1" vertex="1">
          <mxGeometry x="390" y="50" width="100" height="40" as="geometry" />
        </mxCell>
        <mxCell id="D3T-K-M_0nCNbyNgaq4X-5" value="&lt;font style=&quot;font-size: 12px;&quot;&gt;Студент&lt;/font&gt;" style="shape=ext;margin=3;double=1;whiteSpace=wrap;html=1;align=center;" parent="1" vertex="1">
          <mxGeometry x="390" y="240" width="100" height="40" as="geometry" />
        </mxCell>
        <mxCell id="D3T-K-M_0nCNbyNgaq4X-7" value="Номер группы" style="ellipse;whiteSpace=wrap;html=1;align=center;fontStyle=4;" parent="1" vertex="1">
          <mxGeometry x="390" y="-20" width="100" height="40" as="geometry" />
        </mxCell>
        <mxCell id="D3T-K-M_0nCNbyNgaq4X-11" value="Состоит из" style="shape=rhombus;perimeter=rhombusPerimeter;whiteSpace=wrap;html=1;align=center;" parent="1" vertex="1">
          <mxGeometry x="380" y="130" width="120" height="60" as="geometry" />
        </mxCell>
        <mxCell id="D3T-K-M_0nCNbyNgaq4X-21" value="" style="endArrow=none;html=1;rounded=0;exitX=0.5;exitY=0;exitDx=0;exitDy=0;entryX=0.5;entryY=1;entryDx=0;entryDy=0;" parent="1" source="D3T-K-M_0nCNbyNgaq4X-1" target="D3T-K-M_0nCNbyNgaq4X-7" edge="1">
          <mxGeometry relative="1" as="geometry">
            <mxPoint x="330" y="90" as="sourcePoint" />
            <mxPoint x="490" y="90" as="targetPoint" />
          </mxGeometry>
        </mxCell>
        <mxCell id="D3T-K-M_0nCNbyNgaq4X-24" value="Фамилия" style="ellipse;whiteSpace=wrap;html=1;align=center;" parent="1" vertex="1">
          <mxGeometry x="540" y="180" width="100" height="40" as="geometry" />
        </mxCell>
        <mxCell id="D3T-K-M_0nCNbyNgaq4X-25" value="Имя" style="ellipse;whiteSpace=wrap;html=1;align=center;" parent="1" vertex="1">
          <mxGeometry x="540" y="230" width="100" height="40" as="geometry" />
        </mxCell>
        <mxCell id="JdK1ObVw6Y-Wu6FpZ1qE-14" style="edgeStyle=orthogonalEdgeStyle;rounded=0;orthogonalLoop=1;jettySize=auto;html=1;exitX=0.5;exitY=1;exitDx=0;exitDy=0;" edge="1" parent="1" source="D3T-K-M_0nCNbyNgaq4X-26">
          <mxGeometry relative="1" as="geometry">
            <mxPoint x="590" y="320" as="targetPoint" />
          </mxGeometry>
        </mxCell>
        <mxCell id="D3T-K-M_0nCNbyNgaq4X-26" value="Отчество" style="ellipse;whiteSpace=wrap;html=1;align=center;" parent="1" vertex="1">
          <mxGeometry x="540" y="280" width="100" height="40" as="geometry" />
        </mxCell>
        <mxCell id="D3T-K-M_0nCNbyNgaq4X-27" value="" style="endArrow=none;html=1;rounded=0;exitX=1;exitY=0.5;exitDx=0;exitDy=0;entryX=0;entryY=0.5;entryDx=0;entryDy=0;" parent="1" source="D3T-K-M_0nCNbyNgaq4X-5" target="D3T-K-M_0nCNbyNgaq4X-24" edge="1">
          <mxGeometry relative="1" as="geometry">
            <mxPoint x="460" y="280" as="sourcePoint" />
            <mxPoint x="620" y="280" as="targetPoint" />
          </mxGeometry>
        </mxCell>
        <mxCell id="D3T-K-M_0nCNbyNgaq4X-28" value="" style="endArrow=none;html=1;rounded=0;exitX=1;exitY=0.5;exitDx=0;exitDy=0;entryX=0;entryY=0.5;entryDx=0;entryDy=0;" parent="1" source="D3T-K-M_0nCNbyNgaq4X-5" target="D3T-K-M_0nCNbyNgaq4X-25" edge="1">
          <mxGeometry relative="1" as="geometry">
            <mxPoint x="460" y="280" as="sourcePoint" />
            <mxPoint x="620" y="280" as="targetPoint" />
          </mxGeometry>
        </mxCell>
        <mxCell id="D3T-K-M_0nCNbyNgaq4X-29" value="" style="endArrow=none;html=1;rounded=0;exitX=1;exitY=0.5;exitDx=0;exitDy=0;entryX=0;entryY=0.5;entryDx=0;entryDy=0;" parent="1" source="D3T-K-M_0nCNbyNgaq4X-5" target="D3T-K-M_0nCNbyNgaq4X-26" edge="1">
          <mxGeometry relative="1" as="geometry">
            <mxPoint x="460" y="280" as="sourcePoint" />
            <mxPoint x="620" y="280" as="targetPoint" />
          </mxGeometry>
        </mxCell>
        <mxCell id="D3T-K-M_0nCNbyNgaq4X-30" value="" style="shape=link;html=1;rounded=0;exitX=0.5;exitY=1;exitDx=0;exitDy=0;entryX=0.5;entryY=0;entryDx=0;entryDy=0;" parent="1" source="D3T-K-M_0nCNbyNgaq4X-1" target="D3T-K-M_0nCNbyNgaq4X-11" edge="1">
          <mxGeometry relative="1" as="geometry">
            <mxPoint x="380" y="130" as="sourcePoint" />
            <mxPoint x="540" y="130" as="targetPoint" />
          </mxGeometry>
        </mxCell>
        <mxCell id="D3T-K-M_0nCNbyNgaq4X-31" value="1" style="resizable=0;html=1;whiteSpace=wrap;align=right;verticalAlign=bottom;" parent="D3T-K-M_0nCNbyNgaq4X-30" connectable="0" vertex="1">
          <mxGeometry x="1" relative="1" as="geometry">
            <mxPoint x="20" y="-20" as="offset" />
          </mxGeometry>
        </mxCell>
        <mxCell id="D3T-K-M_0nCNbyNgaq4X-32" value="" style="shape=link;html=1;rounded=0;exitX=0.5;exitY=1;exitDx=0;exitDy=0;entryX=0.5;entryY=0;entryDx=0;entryDy=0;" parent="1" source="D3T-K-M_0nCNbyNgaq4X-11" target="D3T-K-M_0nCNbyNgaq4X-5" edge="1">
          <mxGeometry relative="1" as="geometry">
            <mxPoint x="380" y="230" as="sourcePoint" />
            <mxPoint x="540" y="230" as="targetPoint" />
          </mxGeometry>
        </mxCell>
        <mxCell id="D3T-K-M_0nCNbyNgaq4X-33" value="N" style="resizable=0;html=1;whiteSpace=wrap;align=right;verticalAlign=bottom;" parent="D3T-K-M_0nCNbyNgaq4X-32" connectable="0" vertex="1">
          <mxGeometry x="1" relative="1" as="geometry">
            <mxPoint x="20" as="offset" />
          </mxGeometry>
        </mxCell>
        <mxCell id="D3T-K-M_0nCNbyNgaq4X-34" value="&lt;font style=&quot;font-size: 10px;&quot;&gt;Номер студенческого билета&lt;/font&gt;" style="ellipse;whiteSpace=wrap;html=1;align=center;fontStyle=4;" parent="1" vertex="1">
          <mxGeometry x="240" y="180" width="100" height="40" as="geometry" />
        </mxCell>
        <mxCell id="D3T-K-M_0nCNbyNgaq4X-35" value="" style="endArrow=none;html=1;rounded=0;exitX=1;exitY=0.5;exitDx=0;exitDy=0;entryX=0;entryY=0.5;entryDx=0;entryDy=0;" parent="1" source="D3T-K-M_0nCNbyNgaq4X-34" target="D3T-K-M_0nCNbyNgaq4X-5" edge="1">
          <mxGeometry relative="1" as="geometry">
            <mxPoint x="380" y="230" as="sourcePoint" />
            <mxPoint x="540" y="230" as="targetPoint" />
          </mxGeometry>
        </mxCell>
        <mxCell id="D3T-K-M_0nCNbyNgaq4X-36" value="Результат сдачи сессии" style="shape=ext;margin=3;double=1;whiteSpace=wrap;html=1;align=center;" parent="1" vertex="1">
          <mxGeometry x="390" y="440" width="100" height="40" as="geometry" />
        </mxCell>
        <mxCell id="D3T-K-M_0nCNbyNgaq4X-37" value="Имеет" style="shape=rhombus;perimeter=rhombusPerimeter;whiteSpace=wrap;html=1;align=center;" parent="1" vertex="1">
          <mxGeometry x="380" y="330" width="120" height="60" as="geometry" />
        </mxCell>
        <mxCell id="D3T-K-M_0nCNbyNgaq4X-38" value="" style="endArrow=none;html=1;rounded=0;entryX=0.5;entryY=1;entryDx=0;entryDy=0;exitX=0.5;exitY=0;exitDx=0;exitDy=0;" parent="1" edge="1">
          <mxGeometry relative="1" as="geometry">
            <mxPoint x="439.67" y="330" as="sourcePoint" />
            <mxPoint x="439.67" y="280" as="targetPoint" />
          </mxGeometry>
        </mxCell>
        <mxCell id="D3T-K-M_0nCNbyNgaq4X-39" value="1" style="resizable=0;html=1;whiteSpace=wrap;align=right;verticalAlign=bottom;" parent="D3T-K-M_0nCNbyNgaq4X-38" connectable="0" vertex="1">
          <mxGeometry x="1" relative="1" as="geometry">
            <mxPoint x="20" y="20" as="offset" />
          </mxGeometry>
        </mxCell>
        <mxCell id="D3T-K-M_0nCNbyNgaq4X-43" value="&lt;span style=&quot;&quot;&gt;id сессии&lt;/span&gt;" style="ellipse;whiteSpace=wrap;html=1;align=center;fontStyle=4;" parent="1" vertex="1">
          <mxGeometry x="230" y="500" width="100" height="40" as="geometry" />
        </mxCell>
        <mxCell id="D3T-K-M_0nCNbyNgaq4X-44" value="" style="endArrow=none;html=1;rounded=0;exitX=1;exitY=0;exitDx=0;exitDy=0;" parent="1" edge="1" source="D3T-K-M_0nCNbyNgaq4X-43">
          <mxGeometry relative="1" as="geometry">
            <mxPoint x="340" y="460" as="sourcePoint" />
            <mxPoint x="390" y="460" as="targetPoint" />
          </mxGeometry>
        </mxCell>
        <mxCell id="D3T-K-M_0nCNbyNgaq4X-45" value="Семестр" style="ellipse;whiteSpace=wrap;html=1;align=center;" parent="1" vertex="1">
          <mxGeometry x="540" y="440" width="100" height="40" as="geometry" />
        </mxCell>
        <mxCell id="D3T-K-M_0nCNbyNgaq4X-46" value="" style="endArrow=none;html=1;rounded=0;" parent="1" edge="1">
          <mxGeometry relative="1" as="geometry">
            <mxPoint x="490" y="460" as="sourcePoint" />
            <mxPoint x="540" y="460" as="targetPoint" />
          </mxGeometry>
        </mxCell>
        <mxCell id="D3T-K-M_0nCNbyNgaq4X-51" value="" style="endArrow=none;html=1;rounded=0;entryX=0;entryY=0.5;entryDx=0;entryDy=0;exitX=1;exitY=0.5;exitDx=0;exitDy=0;" parent="1" target="D3T-K-M_0nCNbyNgaq4X-5" edge="1" source="JdK1ObVw6Y-Wu6FpZ1qE-2">
          <mxGeometry relative="1" as="geometry">
            <mxPoint x="340" y="260" as="sourcePoint" />
            <mxPoint x="500" y="260" as="targetPoint" />
          </mxGeometry>
        </mxCell>
        <mxCell id="D3T-K-M_0nCNbyNgaq4X-53" value="" style="endArrow=none;html=1;rounded=0;exitX=0.5;exitY=1;exitDx=0;exitDy=0;entryX=0.5;entryY=0;entryDx=0;entryDy=0;" parent="1" source="JdK1ObVw6Y-Wu6FpZ1qE-1" target="JdK1ObVw6Y-Wu6FpZ1qE-4" edge="1">
          <mxGeometry relative="1" as="geometry">
            <mxPoint x="260" y="300" as="sourcePoint" />
            <mxPoint x="210" y="300" as="targetPoint" />
          </mxGeometry>
        </mxCell>
        <mxCell id="D3T-K-M_0nCNbyNgaq4X-54" value="Курс" style="ellipse;whiteSpace=wrap;html=1;align=center;" parent="1" vertex="1">
          <mxGeometry x="540" y="330" width="100" height="40" as="geometry" />
        </mxCell>
        <mxCell id="D3T-K-M_0nCNbyNgaq4X-55" value="" style="endArrow=none;html=1;rounded=0;entryX=0;entryY=0.5;entryDx=0;entryDy=0;exitX=1;exitY=0.5;exitDx=0;exitDy=0;" parent="1" source="D3T-K-M_0nCNbyNgaq4X-5" target="D3T-K-M_0nCNbyNgaq4X-54" edge="1">
          <mxGeometry relative="1" as="geometry">
            <mxPoint x="360" y="230" as="sourcePoint" />
            <mxPoint x="520" y="230" as="targetPoint" />
          </mxGeometry>
        </mxCell>
        <mxCell id="9Mjba3lno6LiprhsRoW5-1" value="" style="shape=link;html=1;rounded=0;entryX=0.5;entryY=0;entryDx=0;entryDy=0;exitX=0.5;exitY=1;exitDx=0;exitDy=0;" parent="1" source="D3T-K-M_0nCNbyNgaq4X-37" target="D3T-K-M_0nCNbyNgaq4X-36" edge="1">
          <mxGeometry relative="1" as="geometry">
            <mxPoint x="250" y="390" as="sourcePoint" />
            <mxPoint x="410" y="390" as="targetPoint" />
          </mxGeometry>
        </mxCell>
        <mxCell id="JdK1ObVw6Y-Wu6FpZ1qE-1" value="Договор" style="shape=ext;margin=3;double=1;whiteSpace=wrap;html=1;align=center;" vertex="1" parent="1">
          <mxGeometry x="80" y="240" width="100" height="40" as="geometry" />
        </mxCell>
        <mxCell id="JdK1ObVw6Y-Wu6FpZ1qE-2" value="Заключил" style="shape=rhombus;perimeter=rhombusPerimeter;whiteSpace=wrap;html=1;align=center;" vertex="1" parent="1">
          <mxGeometry x="230" y="230" width="120" height="60" as="geometry" />
        </mxCell>
        <mxCell id="JdK1ObVw6Y-Wu6FpZ1qE-3" value="" style="endArrow=none;html=1;rounded=0;exitX=1;exitY=0.5;exitDx=0;exitDy=0;entryX=0;entryY=0.5;entryDx=0;entryDy=0;" edge="1" parent="1" source="JdK1ObVw6Y-Wu6FpZ1qE-1" target="JdK1ObVw6Y-Wu6FpZ1qE-2">
          <mxGeometry relative="1" as="geometry">
            <mxPoint x="130" y="300" as="sourcePoint" />
            <mxPoint x="290" y="300" as="targetPoint" />
          </mxGeometry>
        </mxCell>
        <mxCell id="JdK1ObVw6Y-Wu6FpZ1qE-4" value="Предприятие" style="ellipse;whiteSpace=wrap;html=1;align=center;" vertex="1" parent="1">
          <mxGeometry x="140" y="300" width="100" height="40" as="geometry" />
        </mxCell>
        <mxCell id="JdK1ObVw6Y-Wu6FpZ1qE-6" value="" style="endArrow=none;html=1;rounded=0;exitX=0.783;exitY=0.875;exitDx=0;exitDy=0;entryX=0.5;entryY=0;entryDx=0;entryDy=0;exitPerimeter=0;" edge="1" parent="1" source="JdK1ObVw6Y-Wu6FpZ1qE-7" target="JdK1ObVw6Y-Wu6FpZ1qE-1">
          <mxGeometry relative="1" as="geometry">
            <mxPoint x="130" y="210" as="sourcePoint" />
            <mxPoint x="190" y="230" as="targetPoint" />
          </mxGeometry>
        </mxCell>
        <mxCell id="JdK1ObVw6Y-Wu6FpZ1qE-7" value="Тип" style="ellipse;whiteSpace=wrap;html=1;align=center;" vertex="1" parent="1">
          <mxGeometry x="10" y="190" width="100" height="40" as="geometry" />
        </mxCell>
        <mxCell id="JdK1ObVw6Y-Wu6FpZ1qE-9" value="Номер договора" style="ellipse;whiteSpace=wrap;html=1;align=center;fontStyle=4;" vertex="1" parent="1">
          <mxGeometry x="20" y="300" width="100" height="40" as="geometry" />
        </mxCell>
        <mxCell id="JdK1ObVw6Y-Wu6FpZ1qE-10" value="" style="endArrow=none;html=1;rounded=0;exitX=0.5;exitY=0;exitDx=0;exitDy=0;entryX=0.5;entryY=1;entryDx=0;entryDy=0;" edge="1" parent="1" source="JdK1ObVw6Y-Wu6FpZ1qE-9" target="JdK1ObVw6Y-Wu6FpZ1qE-1">
          <mxGeometry relative="1" as="geometry">
            <mxPoint x="60" y="370" as="sourcePoint" />
            <mxPoint x="220" y="370" as="targetPoint" />
          </mxGeometry>
        </mxCell>
        <mxCell id="JdK1ObVw6Y-Wu6FpZ1qE-11" value="&lt;font style=&quot;font-size: 10px;&quot;&gt;&lt;u&gt;Номер студенческого билета&lt;/u&gt;&lt;/font&gt;" style="ellipse;whiteSpace=wrap;html=1;align=center;fontStyle=0;" vertex="1" parent="1">
          <mxGeometry x="230" y="430" width="100" height="40" as="geometry" />
        </mxCell>
        <mxCell id="JdK1ObVw6Y-Wu6FpZ1qE-12" value="" style="endArrow=none;html=1;rounded=0;exitX=1;exitY=0.5;exitDx=0;exitDy=0;entryX=0;entryY=0.5;entryDx=0;entryDy=0;" edge="1" parent="1" source="JdK1ObVw6Y-Wu6FpZ1qE-11" target="D3T-K-M_0nCNbyNgaq4X-36">
          <mxGeometry relative="1" as="geometry">
            <mxPoint x="330" y="450" as="sourcePoint" />
            <mxPoint x="490" y="450" as="targetPoint" />
          </mxGeometry>
        </mxCell>
        <mxCell id="JdK1ObVw6Y-Wu6FpZ1qE-13" value="Номер группы" style="ellipse;whiteSpace=wrap;html=1;align=center;" vertex="1" parent="1">
          <mxGeometry x="540" y="130" width="100" height="40" as="geometry" />
        </mxCell>
        <mxCell id="JdK1ObVw6Y-Wu6FpZ1qE-17" value="" style="endArrow=none;html=1;rounded=0;exitX=1;exitY=0.5;exitDx=0;exitDy=0;entryX=0;entryY=0.5;entryDx=0;entryDy=0;" edge="1" parent="1" source="D3T-K-M_0nCNbyNgaq4X-5" target="JdK1ObVw6Y-Wu6FpZ1qE-13">
          <mxGeometry relative="1" as="geometry">
            <mxPoint x="370" y="300" as="sourcePoint" />
            <mxPoint x="530" y="300" as="targetPoint" />
          </mxGeometry>
        </mxCell>
        <mxCell id="JdK1ObVw6Y-Wu6FpZ1qE-18" value="&lt;font style=&quot;font-size: 10px;&quot;&gt;Номер студенческого билета&lt;/font&gt;" style="ellipse;whiteSpace=wrap;html=1;align=center;fontStyle=0;" vertex="1" parent="1">
          <mxGeometry x="110" y="160" width="100" height="40" as="geometry" />
        </mxCell>
        <mxCell id="JdK1ObVw6Y-Wu6FpZ1qE-19" value="" style="endArrow=none;html=1;rounded=0;exitX=0.5;exitY=0;exitDx=0;exitDy=0;entryX=0.5;entryY=1;entryDx=0;entryDy=0;" edge="1" parent="1" source="JdK1ObVw6Y-Wu6FpZ1qE-1" target="JdK1ObVw6Y-Wu6FpZ1qE-18">
          <mxGeometry relative="1" as="geometry">
            <mxPoint x="240" y="300" as="sourcePoint" />
            <mxPoint x="400" y="300" as="targetPoint" />
          </mxGeometry>
        </mxCell>
        <mxCell id="JdK1ObVw6Y-Wu6FpZ1qE-20" value="N" style="resizable=0;html=1;whiteSpace=wrap;align=right;verticalAlign=bottom;" connectable="0" vertex="1" parent="1">
          <mxGeometry x="470" y="250" as="geometry">
            <mxPoint x="-6" y="187" as="offset" />
          </mxGeometry>
        </mxCell>
        <mxCell id="JdK1ObVw6Y-Wu6FpZ1qE-22" value="Категория&lt;br&gt;" style="whiteSpace=wrap;html=1;align=center;" vertex="1" parent="1">
          <mxGeometry x="390" y="610" width="100" height="40" as="geometry" />
        </mxCell>
        <mxCell id="JdK1ObVw6Y-Wu6FpZ1qE-23" value="название" style="ellipse;whiteSpace=wrap;html=1;align=center;" vertex="1" parent="1">
          <mxGeometry x="240" y="610" width="100" height="40" as="geometry" />
        </mxCell>
        <mxCell id="JdK1ObVw6Y-Wu6FpZ1qE-24" value="&lt;u&gt;id категории&lt;/u&gt;" style="ellipse;whiteSpace=wrap;html=1;align=center;" vertex="1" parent="1">
          <mxGeometry x="290" y="690" width="100" height="40" as="geometry" />
        </mxCell>
        <mxCell id="JdK1ObVw6Y-Wu6FpZ1qE-25" value="размер стипендии" style="ellipse;whiteSpace=wrap;html=1;align=center;" vertex="1" parent="1">
          <mxGeometry x="490" y="690" width="100" height="40" as="geometry" />
        </mxCell>
        <mxCell id="JdK1ObVw6Y-Wu6FpZ1qE-26" value="Определяет" style="shape=rhombus;perimeter=rhombusPerimeter;whiteSpace=wrap;html=1;align=center;" vertex="1" parent="1">
          <mxGeometry x="380" y="520" width="120" height="60" as="geometry" />
        </mxCell>
        <mxCell id="JdK1ObVw6Y-Wu6FpZ1qE-27" value="1" style="resizable=0;html=1;whiteSpace=wrap;align=right;verticalAlign=bottom;" connectable="0" vertex="1" parent="1">
          <mxGeometry x="380.00000000000006" y="280" as="geometry" />
        </mxCell>
        <mxCell id="JdK1ObVw6Y-Wu6FpZ1qE-28" value="1" style="resizable=0;html=1;whiteSpace=wrap;align=right;verticalAlign=bottom;" connectable="0" vertex="1" parent="1">
          <mxGeometry x="490.00000000000006" y="300" as="geometry">
            <mxPoint x="-291" y="-42" as="offset" />
          </mxGeometry>
        </mxCell>
        <mxCell id="JdK1ObVw6Y-Wu6FpZ1qE-29" value="" style="endArrow=none;html=1;rounded=0;entryX=0.5;entryY=1;entryDx=0;entryDy=0;exitX=0.5;exitY=0;exitDx=0;exitDy=0;" edge="1" parent="1" source="JdK1ObVw6Y-Wu6FpZ1qE-26" target="D3T-K-M_0nCNbyNgaq4X-36">
          <mxGeometry relative="1" as="geometry">
            <mxPoint x="440" y="520" as="sourcePoint" />
            <mxPoint x="400" y="520" as="targetPoint" />
          </mxGeometry>
        </mxCell>
        <mxCell id="JdK1ObVw6Y-Wu6FpZ1qE-30" value="" style="endArrow=none;html=1;rounded=0;entryX=0.5;entryY=1;entryDx=0;entryDy=0;exitX=0.5;exitY=0;exitDx=0;exitDy=0;" edge="1" parent="1" source="JdK1ObVw6Y-Wu6FpZ1qE-22" target="JdK1ObVw6Y-Wu6FpZ1qE-26">
          <mxGeometry relative="1" as="geometry">
            <mxPoint x="220" y="600" as="sourcePoint" />
            <mxPoint x="380" y="600" as="targetPoint" />
          </mxGeometry>
        </mxCell>
        <mxCell id="JdK1ObVw6Y-Wu6FpZ1qE-31" value="1" style="resizable=0;html=1;whiteSpace=wrap;align=right;verticalAlign=bottom;" connectable="0" vertex="1" parent="1">
          <mxGeometry x="470.00000000000006" y="420" as="geometry">
            <mxPoint x="-17" y="188" as="offset" />
          </mxGeometry>
        </mxCell>
        <mxCell id="JdK1ObVw6Y-Wu6FpZ1qE-32" value="" style="endArrow=none;html=1;rounded=0;entryX=0;entryY=0.5;entryDx=0;entryDy=0;exitX=1;exitY=0.5;exitDx=0;exitDy=0;" edge="1" parent="1" source="JdK1ObVw6Y-Wu6FpZ1qE-23" target="JdK1ObVw6Y-Wu6FpZ1qE-22">
          <mxGeometry relative="1" as="geometry">
            <mxPoint x="150" y="670" as="sourcePoint" />
            <mxPoint x="310" y="670" as="targetPoint" />
          </mxGeometry>
        </mxCell>
        <mxCell id="JdK1ObVw6Y-Wu6FpZ1qE-33" value="" style="endArrow=none;html=1;rounded=0;entryX=0.5;entryY=1;entryDx=0;entryDy=0;exitX=0.5;exitY=0;exitDx=0;exitDy=0;" edge="1" parent="1" source="JdK1ObVw6Y-Wu6FpZ1qE-24" target="JdK1ObVw6Y-Wu6FpZ1qE-22">
          <mxGeometry relative="1" as="geometry">
            <mxPoint x="360" y="690" as="sourcePoint" />
            <mxPoint x="440" y="680" as="targetPoint" />
          </mxGeometry>
        </mxCell>
        <mxCell id="JdK1ObVw6Y-Wu6FpZ1qE-34" value="" style="endArrow=none;html=1;rounded=0;exitX=0.5;exitY=1;exitDx=0;exitDy=0;entryX=0.5;entryY=0;entryDx=0;entryDy=0;" edge="1" parent="1" source="JdK1ObVw6Y-Wu6FpZ1qE-22" target="JdK1ObVw6Y-Wu6FpZ1qE-25">
          <mxGeometry relative="1" as="geometry">
            <mxPoint x="500" y="650" as="sourcePoint" />
            <mxPoint x="660" y="650" as="targetPoint" />
          </mxGeometry>
        </mxCell>
        <mxCell id="JdK1ObVw6Y-Wu6FpZ1qE-35" value="1" style="resizable=0;html=1;whiteSpace=wrap;align=right;verticalAlign=bottom;" connectable="0" vertex="1" parent="1">
          <mxGeometry x="460.00000000000006" y="320" as="geometry">
            <mxPoint x="-7" y="186" as="offset" />
          </mxGeometry>
        </mxCell>
      </root>
    </mxGraphModel>
  </diagram>
</mxfile>
